<svg width="32" height="32" viewBox="0 0 32 32" fill="none" xmlns="http://www.w3.org/2000/svg">
<g clip-path="url(#clip0)">
<path d="M32.0014 16.0988C32.0014 7.20678 24.8374 -0.0012207 16.0014 -0.0012207C7.16138 0.000779297 -0.00262451 7.20678 -0.00262451 16.1008C-0.00262451 24.1348 5.84938 30.7948 13.4974 32.0028V20.7528H9.43738V16.1008H13.5014V12.5508C13.5014 8.51678 15.8914 6.28878 19.5454 6.28878C21.2974 6.28878 23.1274 6.60278 23.1274 6.60278V10.5628H21.1094C19.1234 10.5628 18.5034 11.8048 18.5034 13.0788V16.0988H22.9394L22.2314 20.7508H18.5014V32.0008C26.1494 30.7928 32.0014 24.1328 32.0014 16.0988Z" fill="#064387"/>
</g>
<defs>
<clipPath id="clip0">
<rect width="32" height="32" fill="white"/>
</clipPath>
</defs>
</svg>
