<svg width="20" height="20" viewBox="0 0 20 20" fill="none" xmlns="http://www.w3.org/2000/svg">
<g clip-path="url(#clip0)">
<path d="M10.0032 4.86501C7.16741 4.86501 4.87158 7.16334 4.87158 9.99667C4.87158 12.8325 7.16991 15.1283 10.0032 15.1283C12.8391 15.1283 15.1349 12.83 15.1349 9.99667C15.1349 7.16084 12.8366 4.86501 10.0032 4.86501ZM10.0032 13.3275C8.16241 13.3275 6.67242 11.8367 6.67242 9.99667C6.67242 8.15667 8.16325 6.66584 10.0032 6.66584C11.8432 6.66584 13.3341 8.15667 13.3341 9.99667C13.3349 11.8367 11.8441 13.3275 10.0032 13.3275Z" fill="#064387"/>
<path d="M14.1233 0.0634326C12.2833 -0.0224008 7.72578 -0.0182341 5.88411 0.0634326C4.26578 0.139266 2.83828 0.530099 1.68745 1.68093C-0.235888 3.60427 0.00994525 6.19594 0.00994525 9.99677C0.00994525 13.8868 -0.206721 16.4184 1.68745 18.3126C3.61828 20.2426 6.24745 19.9901 10.0033 19.9901C13.8566 19.9901 15.1866 19.9926 16.5491 19.4651C18.4016 18.7459 19.7999 17.0901 19.9366 14.1159C20.0233 12.2751 20.0183 7.71844 19.9366 5.87677C19.7716 2.36593 17.8874 0.236766 14.1233 0.0634326ZM17.0358 17.0401C15.7749 18.3009 14.0258 18.1884 9.97911 18.1884C5.81245 18.1884 4.14161 18.2501 2.92245 17.0276C1.51828 15.6301 1.77245 13.3859 1.77245 9.98344C1.77245 5.37927 1.29995 2.06343 5.92078 1.82677C6.98245 1.78927 7.29495 1.77677 9.96745 1.77677L10.0049 1.80177C14.4458 1.80177 17.9299 1.33677 18.1391 5.95677C18.1866 7.01094 18.1974 7.3276 18.1974 9.99594C18.1966 14.1143 18.2749 15.7951 17.0358 17.0401Z" fill="#064387"/>
<path d="M15.3383 5.86167C16.0006 5.86167 16.5375 5.32479 16.5375 4.6625C16.5375 4.00022 16.0006 3.46333 15.3383 3.46333C14.676 3.46333 14.1392 4.00022 14.1392 4.6625C14.1392 5.32479 14.676 5.86167 15.3383 5.86167Z" fill="#064387"/>
</g>
<defs>
<clipPath id="clip0">
<rect width="20" height="20" fill="white"/>
</clipPath>
</defs>
</svg>
