<svg width="32" height="32" viewBox="0 0 32 32" fill="none" xmlns="http://www.w3.org/2000/svg">
<path d="M19.0625 16C19.0625 17.6914 17.6914 19.0625 16 19.0625C14.3086 19.0625 12.9375 17.6914 12.9375 16C12.9375 14.3086 14.3086 12.9375 16 12.9375C17.6914 12.9375 19.0625 14.3086 19.0625 16Z" fill="#064387"/>
<path d="M23.1624 10.5808C23.0151 10.1819 22.7803 9.8208 22.4751 9.52441C22.1787 9.21924 21.8179 8.98438 21.4187 8.83716C21.095 8.71143 20.6086 8.56177 19.7129 8.521C18.7439 8.47681 18.4534 8.46729 16.0002 8.46729C13.5469 8.46729 13.2563 8.47656 12.2876 8.52075C11.3918 8.56177 10.9053 8.71143 10.5818 8.83716C10.1826 8.98438 9.82153 9.21924 9.52539 9.52441C9.22022 9.8208 8.98535 10.1816 8.83789 10.5808C8.71216 10.9045 8.5625 11.3911 8.52173 12.2869C8.47754 13.2556 8.46802 13.5461 8.46802 15.9995C8.46802 18.4526 8.47754 18.7432 8.52173 19.7122C8.5625 20.6079 8.71216 21.0942 8.83789 21.418C8.98535 21.8171 9.21997 22.178 9.52515 22.4744C9.82153 22.7795 10.1824 23.0144 10.5815 23.1616C10.9053 23.2876 11.3918 23.4373 12.2876 23.478C13.2563 23.5222 13.5466 23.5315 16 23.5315C18.4536 23.5315 18.7441 23.5222 19.7126 23.478C20.6084 23.4373 21.095 23.2876 21.4187 23.1616C22.22 22.8525 22.8533 22.2192 23.1624 21.418C23.2881 21.0942 23.4377 20.6079 23.4788 19.7122C23.523 18.7432 23.5322 18.4526 23.5322 15.9995C23.5322 13.5461 23.523 13.2556 23.4788 12.2869C23.438 11.3911 23.2883 10.9045 23.1624 10.5808ZM16.0002 20.717C13.3945 20.717 11.2822 18.605 11.2822 15.9993C11.2822 13.3936 13.3945 11.2815 16.0002 11.2815C18.6057 11.2815 20.718 13.3936 20.718 15.9993C20.718 18.605 18.6057 20.717 16.0002 20.717ZM20.9045 12.1975C20.2957 12.1975 19.802 11.7039 19.802 11.095C19.802 10.4861 20.2957 9.99243 20.9045 9.99243C21.5134 9.99243 22.0071 10.4861 22.0071 11.095C22.0068 11.7039 21.5134 12.1975 20.9045 12.1975Z" fill="#064387"/>
<path d="M16 0C7.16479 0 0 7.16479 0 16C0 24.8352 7.16479 32 16 32C24.8352 32 32 24.8352 32 16C32 7.16479 24.8352 0 16 0ZM25.1321 19.7878C25.0876 20.7659 24.9321 21.4336 24.7051 22.0181C24.2278 23.2522 23.2522 24.2278 22.0181 24.7051C21.4338 24.9321 20.7659 25.0874 19.7881 25.1321C18.8083 25.1768 18.4954 25.1875 16.0002 25.1875C13.5049 25.1875 13.1921 25.1768 12.2122 25.1321C11.2344 25.0874 10.5664 24.9321 9.98218 24.7051C9.3689 24.4744 8.81372 24.1128 8.35474 23.6453C7.88745 23.1865 7.52588 22.6311 7.29517 22.0181C7.06812 21.4338 6.9126 20.7659 6.86816 19.7881C6.823 18.8081 6.8125 18.4951 6.8125 16C6.8125 13.5049 6.823 13.1919 6.86792 12.2122C6.91235 11.2341 7.06763 10.5664 7.29468 9.98193C7.52539 9.3689 7.88721 8.81348 8.35474 8.35474C8.81348 7.88721 9.3689 7.52563 9.98193 7.29492C10.5664 7.06787 11.2341 6.9126 12.2122 6.86792C13.1919 6.82324 13.5049 6.8125 16 6.8125C18.4951 6.8125 18.8081 6.82324 19.7878 6.86816C20.7659 6.9126 21.4336 7.06787 22.0181 7.29468C22.6311 7.52539 23.1865 7.88721 23.6455 8.35474C24.1128 8.81372 24.4746 9.3689 24.7051 9.98193C24.9324 10.5664 25.0876 11.2341 25.1323 12.2122C25.177 13.1919 25.1875 13.5049 25.1875 16C25.1875 18.4951 25.177 18.8081 25.1321 19.7878Z" fill="#064387"/>
</svg>
