<svg width="28" height="37" viewBox="0 0 28 37" fill="none" xmlns="http://www.w3.org/2000/svg">
<path fill-rule="evenodd" clip-rule="evenodd" d="M14 3.86927C8.03151 3.86927 3.00003 8.99342 3.00003 15.5554C3.00003 18.8319 4.44956 22.1893 6.44668 25.233C8.43151 28.258 10.8682 30.8385 12.6399 32.5304C13.4134 33.2691 14.5867 33.2691 15.3602 32.5304C17.1319 30.8385 19.5685 28.258 21.5534 25.233C23.5505 22.1893 25 18.8319 25 15.5554C25 8.99342 19.9685 3.86927 14 3.86927ZM3.05176e-05 15.5554C3.06368e-05 7.5957 6.16143 0.947754 14 0.947754C21.8386 0.947754 28 7.5957 28 15.5554C28 19.6281 26.2209 23.5453 24.0814 26.8061C21.9295 30.0856 19.3213 32.8395 17.4606 34.6163C15.5205 36.4691 12.4796 36.4691 10.5394 34.6163C8.67874 32.8395 6.07059 30.0856 3.91871 26.8061C1.77912 23.5453 3.05176e-05 19.6281 3.05176e-05 15.5554ZM14 11.6683C12.3432 11.6683 11 12.9763 11 14.5898C11 16.2033 12.3432 17.5113 14 17.5113C15.6569 17.5113 17 16.2033 17 14.5898C17 12.9763 15.6569 11.6683 14 11.6683ZM8.00003 14.5898C8.00003 11.3628 10.6863 8.74674 14 8.74674C17.3137 8.74674 20 11.3628 20 14.5898C20 17.8168 17.3137 20.4328 14 20.4328C10.6863 20.4328 8.00003 17.8168 8.00003 14.5898Z" fill="#064387"/>
</svg>
