<svg width="36" height="29" viewBox="0 0 36 29" fill="none" xmlns="http://www.w3.org/2000/svg">
<path fill-rule="evenodd" clip-rule="evenodd" d="M0 6.19921C0 3.24107 2.46243 0.843018 5.5 0.843018H30.5C33.5376 0.843018 36 3.24106 36 6.19921V22.7547C36 25.7128 33.5376 28.1109 30.5 28.1109H5.5C2.46243 28.1109 0 25.7128 0 22.7547V6.19921ZM5.5 3.76457C4.11929 3.76457 3 4.8546 3 6.19921V22.7547C3 24.0993 4.11929 25.1893 5.5 25.1893H30.5C31.8807 25.1893 33 24.0993 33 22.7547V6.19921C33 4.8546 31.8807 3.76457 30.5 3.76457H5.5ZM6.36111 7.20162C6.90025 6.58908 7.8472 6.51814 8.47619 7.04317L18 14.993L27.5238 7.04317C28.1528 6.51814 29.0998 6.58908 29.6389 7.20162C30.178 7.81416 30.1052 8.73635 29.4762 9.26139L18.9762 18.0261C18.4145 18.495 17.5855 18.495 17.0238 18.0261L6.52381 9.26139C5.89482 8.73635 5.82198 7.81416 6.36111 7.20162Z" fill="#064387"/>
</svg>
