<svg width="32" height="32" viewBox="0 0 32 32" fill="none" xmlns="http://www.w3.org/2000/svg">
<path fill-rule="evenodd" clip-rule="evenodd" d="M8.86926 0.0352746C9.25914 0.101919 9.76912 0.2994 10.1339 0.797707L13.3721 5.22201C14.0368 6.13012 14.1776 7.31989 13.7434 8.35809L12.3016 11.8047C12.2708 11.8785 12.2895 11.9324 12.3052 11.9546C13.2192 13.2528 14.3613 14.6373 15.799 16.0811C15.8215 16.1011 15.8435 16.1218 15.865 16.1434C17.3291 17.6075 18.7325 18.7675 20.0474 19.6933C20.0697 19.709 20.1236 19.7278 20.1974 19.6969L23.6434 18.2553C24.6817 17.8209 25.8716 17.9618 26.7797 18.6266L31.2036 21.8648C31.7019 22.2295 31.8993 22.7395 31.9659 23.1294C32.0296 23.5017 31.9939 23.8552 31.9454 24.1251C31.8477 24.6689 31.6269 25.2422 31.4091 25.7277C30.9641 26.7198 30.359 27.7199 30.0655 28.1553L29.8525 28.4714L29.8388 28.4916C29.2446 29.3733 28.354 30.6947 26.8913 31.3498C24.3622 32.4825 21.0976 32.0415 17.8996 30.7292C14.6878 29.4113 11.2702 27.1098 8.16826 24.0389C8.14255 24.0165 8.11743 23.993 8.09294 23.9685C4.95527 20.8309 2.60624 17.3607 1.26929 14.1024C-0.0430042 10.9041 -0.483908 7.63928 0.648804 5.10998C1.30386 3.64728 2.62528 2.75662 3.50693 2.16237C3.51369 2.15782 3.52042 2.15328 3.52713 2.14876L3.84311 1.93576C4.2786 1.6422 5.2787 1.03706 6.27085 0.592033C6.75642 0.374231 7.32972 0.153435 7.87353 0.0557429C8.14342 0.00725956 8.49691 -0.0283735 8.86926 0.0352746ZM10.0912 21.7235C10.1131 21.7431 10.1346 21.7633 10.1556 21.7844C13.0573 24.6862 16.2028 26.7902 19.0385 27.9538C21.9342 29.1421 24.2417 29.2493 25.6651 28.6118C26.2415 28.3537 26.7034 27.7759 27.3648 26.7946L27.5778 26.4786C27.7982 26.1516 28.3119 25.3023 28.6719 24.4999C28.7764 24.267 28.8548 24.0665 28.9091 23.9031L25.0077 21.0473C24.9479 21.0035 24.8696 20.9943 24.8012 21.0229L21.3552 22.4645C20.3788 22.8729 19.2288 22.786 18.3203 22.1463C16.8791 21.1316 15.364 19.8786 13.802 18.3229C13.7788 18.3024 13.7561 18.281 13.7339 18.2588C12.1511 16.676 10.8795 15.1409 9.85216 13.6817C9.21256 12.7732 9.12562 11.6233 9.53402 10.647L10.9757 7.20038C11.0043 7.13202 10.9951 7.05368 10.9513 6.99389L8.09542 3.09204C7.93204 3.1464 7.73157 3.2248 7.49864 3.32928C6.6962 3.68921 5.84687 4.203 5.51996 4.42336L5.20398 4.63636C4.22271 5.29782 3.64491 5.75976 3.38678 6.33615C2.74926 7.75972 2.85647 10.0675 4.04475 12.9636C5.19185 15.7593 7.25283 18.8561 10.0912 21.7235Z" fill="#064387"/>
</svg>
