<svg width="58" height="58" viewBox="0 0 58 58" fill="none" xmlns="http://www.w3.org/2000/svg">
<path d="M49.1099 8.88333C38 -2.22323 19.9899 -2.22056 8.88333 8.88944C-2.22323 19.9994 -2.22056 38.0094 8.88944 49.116C19.9994 60.2225 38.0094 60.2199 49.116 49.1099C54.45 43.7742 57.4458 36.5381 57.4441 28.9935C57.4425 21.4502 54.4447 14.2164 49.1099 8.88333ZM43.6333 40.178C43.6321 40.1792 43.6309 40.1805 43.6295 40.1818V40.1723L42.1883 41.604C40.3244 43.4914 37.6099 44.268 35.0298 43.652C32.4303 42.9562 29.9592 41.8487 27.7101 40.3714C25.6206 39.036 23.6841 37.4749 21.9359 35.716C20.3273 34.1192 18.8822 32.3659 17.6218 30.4822C16.2431 28.4553 15.1519 26.2473 14.3791 23.921C13.4932 21.1881 14.2273 18.1893 16.2754 16.1747L17.9631 14.487C18.4323 14.0157 19.1948 14.014 19.666 14.4832C19.6672 14.4844 19.6686 14.4857 19.6698 14.487L24.9983 19.8155C25.4697 20.2848 25.4713 21.0472 25.0021 21.5184C25.0009 21.5197 24.9997 21.5209 24.9983 21.5222L21.8694 24.6511C20.9717 25.5391 20.8588 26.9502 21.604 27.9697C22.7357 29.5228 23.988 30.9842 25.3492 32.3407C26.8669 33.8649 28.5168 35.2514 30.2795 36.4841C31.2981 37.1945 32.679 37.0748 33.5601 36.1996L36.5847 33.1277C37.0539 32.6563 37.8163 32.6547 38.2875 33.1239C38.2888 33.1251 38.29 33.1263 38.2913 33.1277L43.6294 38.4752C44.1009 38.9443 44.1025 39.7067 43.6333 40.178Z" fill="#1387E3"/>
</svg>
