<svg width="32" height="32" viewBox="0 0 32 32" fill="none" xmlns="http://www.w3.org/2000/svg">
<path d="M15.9844 1.00269C24.2686 1.00269 30.9844 7.71837 30.9844 16.0027C30.9844 24.287 24.2686 31.0027 15.9844 31.0027C7.70012 31.0027 0.984375 24.2869 0.984375 16.0027C0.984375 7.71844 7.7 1.00269 15.9844 1.00269ZM6.792 25.1951C9.07141 27.4676 12.1152 28.81 15.3304 28.9609C18.5455 29.1117 21.7017 28.0601 24.1839 26.011C26.666 23.9619 28.2964 21.0621 28.7573 17.8766C29.2182 14.691 28.4766 11.448 26.6769 8.77944C24.8773 6.11085 22.1487 4.20784 19.0226 3.44123C15.8965 2.67462 12.597 3.09932 9.767 4.63258C6.93697 6.16584 4.77914 8.69781 3.71398 11.7351C2.64882 14.7725 2.75263 18.0976 4.00519 21.0626C4.658 22.6074 5.60443 24.0108 6.792 25.1951Z" fill="#01D957"/>
<path d="M17.0234 10.3116L12.3326 15.0025H23.9922V17.0025H12.3326L17.0234 21.6934L15.6092 23.1076L8.50418 16.0025L15.6092 8.89746L17.0234 10.3116Z" fill="#01D957"/>
</svg>
