<svg width="20" height="20" viewBox="0 0 20 20" fill="none" xmlns="http://www.w3.org/2000/svg">
<path fill-rule="evenodd" clip-rule="evenodd" d="M10 2C10.4142 2.00001 10.75 2.3358 10.75 2.75001L10.75 4.25001C10.75 4.66423 10.4142 5.00001 9.99998 5C9.58576 4.99999 9.24998 4.6642 9.24999 4.24999L9.25002 2.74999C9.25002 2.33577 9.58581 1.99999 10 2ZM4.34261 4.34337C4.6355 4.05048 5.11038 4.05049 5.40327 4.34338L6.46391 5.40406C6.7568 5.69696 6.75679 6.17184 6.46389 6.46472C6.17099 6.75761 5.69612 6.7576 5.40323 6.46471L4.34259 5.40403C4.0497 5.11113 4.04971 4.63625 4.34261 4.34337ZM15.6569 4.34395C15.9497 4.63684 15.9497 5.11172 15.6568 5.40461L14.5962 6.46525C14.3033 6.75814 13.8284 6.75813 13.5355 6.46523C13.2426 6.17233 13.2426 5.69746 13.5355 5.40457L14.5962 4.34393C14.8891 4.05104 15.364 4.05105 15.6569 4.34395ZM10.0002 7.50245C8.62045 7.50245 7.50192 8.62098 7.50192 10.0008C7.50192 11.3805 8.62045 12.4991 10.0002 12.4991C11.38 12.4991 12.4985 11.3805 12.4985 10.0008C12.4985 8.62099 11.38 7.50245 10.0002 7.50245ZM6.00192 10.0008C6.00192 7.79256 7.79202 6.00245 10.0002 6.00245C12.2084 6.00245 13.9985 7.79256 13.9985 10.0008C13.9985 12.209 12.2084 13.9991 10.0002 13.9991C7.79202 13.9991 6.00192 12.209 6.00192 10.0008ZM2 10.0008C2.00001 9.58654 2.3358 9.25076 2.75001 9.25077L4.25001 9.25079C4.66423 9.2508 5.00001 9.58659 5 10.0008C4.99999 10.415 4.6642 10.7508 4.24999 10.7508L2.74999 10.7508C2.33577 10.7508 1.99999 10.415 2 10.0008ZM15.0008 10.0008C15.0008 9.58654 15.3366 9.25076 15.7508 9.25077L17.2508 9.25079C17.665 9.2508 18.0008 9.58659 18.0008 10.0008C18.0008 10.415 17.665 10.7508 17.2508 10.7508L15.7508 10.7508C15.3366 10.7508 15.0008 10.415 15.0008 10.0008ZM13.5356 13.5363C13.8284 13.2434 14.3033 13.2434 14.5962 13.5363L15.6569 14.597C15.9497 14.8899 15.9497 15.3648 15.6568 15.6577C15.3639 15.9505 14.8891 15.9505 14.5962 15.6576L13.5355 14.597C13.2426 14.3041 13.2427 13.8292 13.5356 13.5363ZM6.46394 13.5369C6.75683 13.8298 6.75682 14.3046 6.46393 14.5975L5.40325 15.6582C5.11035 15.9511 4.63548 15.9511 4.34259 15.6582C4.0497 15.3653 4.04971 14.8904 4.34261 14.5975L5.40328 13.5369C5.69618 13.244 6.17106 13.244 6.46394 13.5369ZM10 15.0008C10.4142 15.0008 10.75 15.3366 10.75 15.7508L10.75 17.2508C10.75 17.665 10.4142 18.0008 9.99998 18.0008C9.58576 18.0008 9.24998 17.665 9.24999 17.2508L9.25002 15.7508C9.25002 15.3366 9.58581 15.0008 10 15.0008Z" fill="white"/>
</svg>
