<svg width="20" height="20" viewBox="0 0 20 20" fill="none" xmlns="http://www.w3.org/2000/svg">
<g clip-path="url(#clip0)">
<path d="M0.345884 9.33003L5.23672 11.7675C5.42588 11.8609 5.64922 11.8542 5.83005 11.7484L10.1834 9.21753L7.54838 11.5525C7.41422 11.6717 7.33755 11.8417 7.33755 12.0209V17.7084C7.33755 18.3084 8.10338 18.5609 8.46255 18.0842L10.5767 15.2734L15.8051 18.2509C16.1717 18.4617 16.6417 18.25 16.7267 17.8309L19.9876 1.58086C20.0851 1.09253 19.5992 0.694193 19.1476 0.875859L0.39755 8.18836C-0.105783 8.38503 -0.138283 9.08919 0.345884 9.33003ZM18.5376 2.45586L15.6717 16.7367L10.7176 13.915C10.4476 13.7609 10.1001 13.8292 9.90839 14.0825L8.58755 15.8384V12.3017L15.7134 5.98836C16.2776 5.48919 15.6292 4.60169 14.9851 4.98003L5.49338 10.4984L2.16672 8.84086L18.5376 2.45586Z" fill="#064387"/>
</g>
<defs>
<clipPath id="clip0">
<rect width="20" height="20" fill="white"/>
</clipPath>
</defs>
</svg>
